<?xml version="1.0" encoding="UTF-8"?>
<svg xmlns="http://www.w3.org/2000/svg" width="29" height="35" viewBox="0.00 0.00 28.12 34.90">
  <title>arrow.up</title>
  <path d="M1.83 18.91C2.32 18.91 2.81 19.10 3.14 19.43L6.49 22.69L14.04 31.05L21.63 22.69L24.98 19.43C25.31 19.10 25.80 18.91 26.30 18.91C27.35 18.91 28.12 19.73 28.12 20.77C28.12 21.26 27.94 21.70 27.54 22.15L15.47 34.24C15.07 34.66 14.58 34.90 14.06 34.90C13.55 34.90 13.05 34.66 12.66 34.24L0.59 22.15C0.19 21.70 0.00 21.26 0.00 20.77C0.00 19.73 0.77 18.91 1.83 18.91ZM14.06 0.00C15.16 0.00 15.96 0.77 15.96 1.87L15.96 25.24L15.73 31.01C15.73 31.99 15.05 32.67 14.06 32.67C13.08 32.67 12.40 31.99 12.40 31.01L12.16 25.24L12.16 1.87C12.16 0.77 12.96 0.00 14.06 0.00Z" fill="currentColor"/>
</svg>
