<?xml version="1.0" encoding="UTF-8"?>
<svg xmlns="http://www.w3.org/2000/svg" width="29" height="35" viewBox="0.00 0.00 28.12 34.90">
  <title>arrow.down</title>
  <path d="M14.06 0.00C14.58 0.00 15.07 0.23 15.47 0.66L27.54 12.75C27.94 13.20 28.12 13.64 28.12 14.13C28.12 15.16 27.35 15.98 26.30 15.98C25.80 15.98 25.31 15.80 24.98 15.47L21.63 12.21L14.04 3.84L6.49 12.21L3.14 15.47C2.81 15.80 2.32 15.98 1.83 15.98C0.77 15.98 0.00 15.16 0.00 14.13C0.00 13.64 0.19 13.20 0.59 12.75L12.66 0.66C13.05 0.23 13.55 0.00 14.06 0.00ZM14.06 2.23C15.05 2.23 15.73 2.91 15.73 3.89L15.96 9.66L15.96 33.02C15.96 34.12 15.16 34.90 14.06 34.90C12.96 34.90 12.16 34.12 12.16 33.02L12.16 9.66L12.40 3.89C12.40 2.91 13.08 2.23 14.06 2.23Z" fill="currentColor"/>
</svg>
