<?xml version="1.0" encoding="UTF-8"?>
<svg xmlns="http://www.w3.org/2000/svg" width="35" height="29" viewBox="0.00 0.00 34.10 28.12">
  <title>arrow.left</title>
  <path d="M14.13 0.00C15.16 0.00 15.96 0.77 15.96 1.83C15.96 2.32 15.80 2.81 15.45 3.14L12.21 6.49L3.82 14.06L12.21 21.63L15.45 24.98C15.80 25.31 15.96 25.80 15.96 26.30C15.96 27.35 15.16 28.12 14.13 28.12C13.64 28.12 13.17 27.94 12.75 27.54L0.66 15.47C0.23 15.07 0.00 14.58 0.00 14.06C0.00 13.55 0.23 13.05 0.66 12.66L12.75 0.59C13.17 0.19 13.64 0.00 14.13 0.00ZM10.10 12.16L32.23 12.16C33.33 12.16 34.10 12.96 34.10 14.06C34.10 15.16 33.33 15.96 32.23 15.96L10.10 15.96L3.87 15.52C3.00 15.52 2.41 14.93 2.41 14.06C2.41 13.20 3.00 12.61 3.87 12.61Z" fill="currentColor"/>
</svg>
