<?xml version="1.0" encoding="UTF-8"?>
<svg xmlns="http://www.w3.org/2000/svg" width="35" height="29" viewBox="0.00 0.00 34.10 28.12">
  <title>arrow.right</title>
  <path d="M19.97 0.00C20.46 0.00 20.93 0.19 21.35 0.59L33.45 12.66C33.87 13.05 34.10 13.55 34.10 14.06C34.10 14.58 33.87 15.07 33.45 15.47L21.35 27.54C20.93 27.94 20.46 28.12 19.97 28.12C18.94 28.12 18.14 27.35 18.14 26.30C18.14 25.80 18.30 25.31 18.66 24.98L21.89 21.63L30.28 14.06L21.89 6.49L18.66 3.14C18.30 2.81 18.14 2.32 18.14 1.83C18.14 0.77 18.94 0.00 19.97 0.00ZM1.87 12.16L24.00 12.16L30.23 12.61C31.10 12.68 31.69 13.20 31.69 14.06C31.69 14.93 31.10 15.45 30.23 15.52L24.00 15.96L1.87 15.96C0.77 15.96 0.00 15.16 0.00 14.06C0.00 12.96 0.77 12.16 1.87 12.16Z" fill="currentColor"/>
</svg>
