<?xml version="1.0" encoding="UTF-8"?>
<svg xmlns="http://www.w3.org/2000/svg" width="35" height="39" viewBox="-0.00 0.00 34.97 38.30">
  <title>bell</title>
  <path d="M-0.00 9.35C-0.00 7.85 1.17 6.84 3.16 6.84L10.34 6.84C10.50 3.26 13.41 0.00 17.48 0.00C21.54 0.00 24.45 3.23 24.63 6.84L31.80 6.84C33.80 6.84 34.97 7.85 34.97 9.35C34.97 11.18 33.05 12.87 31.43 14.48C30.37 15.54 29.95 17.72 29.91 19.36C29.88 27.19 28.01 32.09 22.99 34.01C22.31 36.35 20.30 38.30 17.48 38.30C14.67 38.30 12.66 36.35 11.98 34.01C6.96 32.09 5.09 27.19 5.04 19.36C5.02 17.72 4.57 15.54 3.54 14.48C1.90 12.87 -0.00 11.18 -0.00 9.35ZM4.10 10.01L4.10 10.24C4.50 10.66 5.51 11.60 6.42 12.63C7.52 13.90 8.34 15.70 8.39 19.12C8.41 27.89 10.97 30.37 14.09 31.24C14.51 31.34 14.72 31.57 14.72 31.99C14.74 33.94 15.82 35.23 17.48 35.23C19.12 35.23 20.23 33.94 20.23 31.99C20.23 31.57 20.46 31.34 20.86 31.24C24.00 30.37 26.55 27.89 26.58 19.12C26.62 15.70 27.45 13.90 28.55 12.63C29.46 11.60 30.47 10.66 30.87 10.24L30.87 10.01ZM13.59 6.84L21.37 6.84C21.23 4.45 19.66 2.93 17.48 2.93C15.28 2.93 13.73 4.45 13.59 6.84Z" fill="currentColor"/>
</svg>
