<?xml version="1.0" encoding="UTF-8"?>
<svg xmlns="http://www.w3.org/2000/svg" width="35" height="40" viewBox="-0.00 0.00 34.97 39.16">
  <title>bell.fill</title>
  <path d="M3.16 7.71L31.80 7.71C33.80 7.71 34.97 8.72 34.97 10.22C34.97 12.05 33.05 13.73 31.43 15.35C30.37 16.41 29.95 18.59 29.91 20.23C29.88 27.82 28.01 32.95 22.99 34.87C22.22 37.22 20.30 39.16 17.48 39.16C14.67 39.16 12.75 37.22 11.98 34.87C6.96 32.95 5.09 27.82 5.04 20.23C5.02 18.59 4.57 16.41 3.54 15.35C1.90 13.73 -0.00 12.05 -0.00 10.22C-0.00 8.72 1.17 7.71 3.16 7.71ZM17.48 0.00C20.70 0.00 23.04 2.34 23.25 4.99L11.72 4.99C11.91 2.34 14.27 0.00 17.48 0.00Z" fill="currentColor"/>
</svg>
