<?xml version="1.0" encoding="UTF-8"?>
<svg xmlns="http://www.w3.org/2000/svg" width="48" height="35" viewBox="0.00 0.00 47.32 34.71">
  <title>chart.bar</title>
  <path d="M37.87 0.00L42.68 0.00C45.73 0.00 47.32 1.48 47.32 4.34L47.32 30.37C47.32 33.23 45.73 34.71 42.68 34.71L37.87 34.71C34.83 34.71 33.26 33.23 33.26 30.37L33.26 4.34C33.26 1.48 34.83 0.00 37.87 0.00ZM38.48 3.16C37.05 3.16 36.59 3.59 36.59 4.97L36.59 29.74C36.59 31.12 37.05 31.55 38.48 31.55L42.09 31.55C43.52 31.55 43.99 31.12 43.99 29.74L43.99 4.97C43.99 3.59 43.52 3.16 42.09 3.16ZM21.23 0.00L26.06 0.00C29.11 0.00 30.68 1.48 30.68 4.34L30.68 25.01C30.68 27.87 29.11 29.32 26.06 29.32L21.23 29.32C18.19 29.32 16.62 27.87 16.62 25.01L16.62 4.34C16.62 1.48 18.19 0.00 21.23 0.00ZM21.84 3.16C20.41 3.16 19.97 3.59 19.97 4.97L19.97 24.35C19.97 25.73 20.41 26.18 21.84 26.18L25.48 26.18C26.91 26.18 27.35 25.73 27.35 24.35L27.35 4.97C27.35 3.59 26.91 3.16 25.48 3.16ZM4.62 0.00L9.42 0.00C12.47 0.00 14.06 1.48 14.06 4.34L14.06 19.62C14.06 22.48 12.47 23.95 9.42 23.95L4.62 23.95C1.57 23.95 0.00 22.48 0.00 19.62L0.00 4.34C0.00 1.48 1.57 0.00 4.62 0.00ZM5.23 3.16C3.80 3.16 3.33 3.59 3.33 4.97L3.33 18.98C3.33 20.37 3.80 20.79 5.23 20.79L8.84 20.79C10.27 20.79 10.73 20.37 10.73 18.98L10.73 4.97C10.73 3.59 10.27 3.16 8.84 3.16Z" fill="currentColor"/>
</svg>
