<?xml version="1.0" encoding="UTF-8"?>
<svg xmlns="http://www.w3.org/2000/svg" width="47" height="35" viewBox="0.00 0.00 46.69 34.43">
  <title>chart.bar.fill</title>
  <path d="M37.24 0.00L42.68 0.00C45.33 0.00 46.69 1.29 46.69 3.77L46.69 30.68C46.69 33.16 45.33 34.43 42.68 34.43L37.24 34.43C34.62 34.43 33.26 33.16 33.26 30.68L33.26 3.77C33.26 1.29 34.62 0.00 37.24 0.00ZM20.62 0.00L26.06 0.00C28.71 0.00 30.07 1.29 30.07 3.77L30.07 25.29C30.07 27.77 28.71 29.04 26.06 29.04L20.62 29.04C18.00 29.04 16.62 27.77 16.62 25.29L16.62 3.77C16.62 1.29 18.00 0.00 20.62 0.00ZM3.98 0.00L9.42 0.00C12.07 0.00 13.43 1.29 13.43 3.77L13.43 19.92C13.43 22.41 12.07 23.67 9.42 23.67L3.98 23.67C1.36 23.67 0.00 22.41 0.00 19.92L0.00 3.77C0.00 1.29 1.36 0.00 3.98 0.00Z" fill="currentColor"/>
</svg>
