<?xml version="1.0" encoding="UTF-8"?>
<svg xmlns="http://www.w3.org/2000/svg" width="33" height="32" viewBox="0.00 0.00 32.20 31.73">
  <title>checkmark</title>
  <path d="M12.42 0.00C13.34 0.00 14.06 0.40 14.58 1.20L31.66 28.22C32.06 28.83 32.20 29.32 32.20 29.81C32.20 30.96 31.45 31.73 30.28 31.73C29.44 31.73 28.97 31.45 28.45 30.63L12.33 4.76L3.84 16.20C3.30 16.92 2.79 17.23 2.02 17.23C0.84 17.23 0.00 16.41 0.00 15.23C0.00 14.74 0.21 14.20 0.61 13.69L10.20 1.24C10.85 0.40 11.51 0.00 12.42 0.00Z" fill="currentColor"/>
</svg>
