<?xml version="1.0" encoding="UTF-8"?>
<svg xmlns="http://www.w3.org/2000/svg" width="33" height="19" viewBox="0.00 0.00 32.70 18.37">
  <title>chevron.up</title>
  <path d="M0.56 3.30C0.21 2.98 0.00 2.48 0.00 1.95C0.00 0.84 0.84 0.00 1.95 0.00C2.48 0.00 2.98 0.21 3.30 0.56L17.44 14.77L15.26 14.77L29.39 0.56C29.72 0.21 30.26 0.00 30.77 0.00C31.87 0.00 32.70 0.84 32.70 1.95C32.70 2.48 32.48 2.98 32.13 3.30L17.74 17.79C17.39 18.19 16.87 18.37 16.36 18.37C15.82 18.37 15.33 18.19 14.98 17.79Z" fill="currentColor"/>
</svg>
