<?xml version="1.0" encoding="UTF-8"?>
<svg xmlns="http://www.w3.org/2000/svg" width="33" height="19" viewBox="0.00 0.00 32.70 18.37">
  <title>chevron.down</title>
  <path d="M16.36 0.00C16.87 0.00 17.39 0.19 17.74 0.59L32.13 15.07C32.48 15.42 32.70 15.89 32.70 16.43C32.70 17.53 31.87 18.37 30.77 18.37C30.26 18.37 29.74 18.14 29.39 17.81L15.26 3.63L17.44 3.63L3.30 17.81C2.95 18.14 2.48 18.37 1.95 18.37C0.84 18.37 0.00 17.53 0.00 16.43C0.00 15.89 0.21 15.42 0.56 15.07L14.98 0.59C15.35 0.19 15.82 0.00 16.36 0.00Z" fill="currentColor"/>
</svg>
