<?xml version="1.0" encoding="UTF-8"?>
<svg xmlns="http://www.w3.org/2000/svg" width="33" height="35" viewBox="0.00 0.00 32.70 34.78">
  <title>chevron.down.2</title>
  <path d="M0.56 15.07L14.98 0.59C15.35 0.21 15.82 0.00 16.36 0.00C16.87 0.00 17.37 0.23 17.74 0.59L32.13 15.07C32.48 15.42 32.70 15.91 32.70 16.45C32.70 17.55 31.87 18.37 30.77 18.37C30.26 18.37 29.74 18.16 29.39 17.81L15.26 3.63L17.44 3.63L3.30 17.81C2.95 18.16 2.48 18.37 1.95 18.37C0.84 18.37 0.00 17.55 0.00 16.45C0.00 15.91 0.21 15.42 0.56 15.07ZM0.56 31.48L14.98 16.99C15.35 16.62 15.82 16.41 16.36 16.41C16.87 16.41 17.39 16.62 17.74 16.99L32.13 31.48C32.48 31.85 32.70 32.32 32.70 32.86C32.70 33.96 31.87 34.78 30.77 34.78C30.26 34.78 29.74 34.57 29.39 34.22L15.26 20.04L17.44 20.04L3.30 34.22C2.95 34.57 2.48 34.78 1.95 34.78C0.84 34.78 0.00 33.96 0.00 32.86C0.00 32.32 0.21 31.83 0.56 31.48Z" fill="currentColor"/>
</svg>
