<?xml version="1.0" encoding="UTF-8"?>
<svg xmlns="http://www.w3.org/2000/svg" width="33" height="35" viewBox="0.00 0.00 32.70 34.78">
  <title>chevron.up.2</title>
  <path d="M0.56 3.30C0.21 2.95 0.00 2.46 0.00 1.92C0.00 0.82 0.84 0.00 1.95 0.00C2.48 0.00 2.95 0.21 3.30 0.56L17.44 14.74L15.26 14.74L29.39 0.56C29.74 0.21 30.26 0.00 30.77 0.00C31.87 0.00 32.70 0.82 32.70 1.92C32.70 2.46 32.48 2.93 32.13 3.30L17.74 17.79C17.39 18.16 16.87 18.37 16.36 18.37C15.82 18.37 15.35 18.16 14.98 17.79ZM0.56 19.71C0.21 19.36 0.00 18.87 0.00 18.33C0.00 17.23 0.84 16.41 1.95 16.41C2.48 16.41 2.95 16.62 3.30 16.97L17.44 31.15L15.26 31.15L29.39 16.97C29.74 16.62 30.26 16.41 30.77 16.41C31.87 16.41 32.70 17.23 32.70 18.33C32.70 18.87 32.48 19.36 32.13 19.71L17.74 34.20C17.37 34.55 16.87 34.78 16.36 34.78C15.82 34.78 15.35 34.57 14.98 34.20Z" fill="currentColor"/>
</svg>
