<?xml version="1.0" encoding="UTF-8"?>
<svg xmlns="http://www.w3.org/2000/svg" width="19" height="33" viewBox="0.00 0.00 18.37 32.67">
  <title>chevron.left</title>
  <path d="M0.00 16.34C0.00 15.82 0.21 15.35 0.59 14.95L15.07 0.56C15.42 0.19 15.91 0.00 16.45 0.00C17.55 0.00 18.37 0.82 18.37 1.92C18.37 2.46 18.16 2.93 17.81 3.30L4.73 16.34L17.81 29.37C18.16 29.74 18.37 30.23 18.37 30.75C18.37 31.85 17.55 32.67 16.45 32.67C15.91 32.67 15.42 32.48 15.07 32.11L0.59 17.72C0.21 17.32 0.00 16.85 0.00 16.34Z" fill="currentColor"/>
</svg>
