<?xml version="1.0" encoding="UTF-8"?>
<svg xmlns="http://www.w3.org/2000/svg" width="19" height="33" viewBox="-0.00 0.00 18.37 32.67">
  <title>chevron.right</title>
  <path d="M18.37 16.34C18.37 16.85 18.19 17.32 17.79 17.72L3.30 32.11C2.95 32.48 2.48 32.67 1.95 32.67C0.84 32.67 -0.00 31.85 -0.00 30.75C-0.00 30.23 0.23 29.74 0.56 29.37L13.66 16.34L0.56 3.30C0.23 2.93 -0.00 2.46 -0.00 1.92C-0.00 0.82 0.84 0.00 1.95 0.00C2.48 0.00 2.95 0.19 3.30 0.56L17.79 14.95C18.19 15.35 18.37 15.82 18.37 16.34Z" fill="currentColor"/>
</svg>
