<?xml version="1.0" encoding="UTF-8"?>
<svg xmlns="http://www.w3.org/2000/svg" width="38" height="38" viewBox="0.00 0.00 37.85 37.83">
  <title>clock</title>
  <path d="M18.91 0.00C29.37 0.00 37.85 8.46 37.85 18.91C37.85 29.37 29.37 37.83 18.91 37.83C8.48 37.83 0.00 29.37 0.00 18.91C0.00 8.46 8.48 0.00 18.91 0.00ZM18.91 3.56C10.43 3.56 3.59 10.43 3.59 18.91C3.59 27.40 10.43 34.27 18.91 34.27C27.40 34.27 34.27 27.40 34.27 18.91C34.27 10.43 27.40 3.56 18.91 3.56ZM9.54 16.83L18.89 16.83C19.71 16.83 20.34 17.46 20.34 18.26L20.34 30.33C20.34 31.15 19.71 31.78 18.89 31.78C18.09 31.78 17.46 31.15 17.46 30.33L17.46 19.71L9.54 19.71C8.72 19.71 8.11 19.08 8.11 18.26C8.11 17.46 8.72 16.83 9.54 16.83Z" fill="currentColor"/>
</svg>
