<?xml version="1.0" encoding="UTF-8"?>
<svg xmlns="http://www.w3.org/2000/svg" width="36" height="8" viewBox="0.00 0.00 35.25 7.27">
  <title>ellipsis</title>
  <path d="M31.62 0.00C33.63 0.00 35.25 1.62 35.25 3.63C35.25 5.65 33.63 7.27 31.62 7.27C29.62 7.27 27.98 5.65 27.98 3.63C27.98 1.62 29.62 0.00 31.62 0.00ZM17.62 0.00C19.64 0.00 21.26 1.62 21.26 3.63C21.26 5.65 19.64 7.27 17.62 7.27C15.61 7.27 13.99 5.65 13.99 3.63C13.99 1.62 15.61 0.00 17.62 0.00ZM3.63 0.00C5.65 0.00 7.27 1.62 7.27 3.63C7.27 5.65 5.65 7.27 3.63 7.27C1.62 7.27 0.00 5.65 0.00 3.63C0.00 1.62 1.62 0.00 3.63 0.00Z" fill="currentColor"/>
</svg>
