<?xml version="1.0" encoding="UTF-8"?>
<svg xmlns="http://www.w3.org/2000/svg" width="38" height="38" viewBox="0.00 0.00 37.85 37.83">
  <title>ellipsis.circle</title>
  <path d="M18.91 0.00C29.37 0.00 37.85 8.46 37.85 18.91C37.85 29.37 29.37 37.83 18.91 37.83C8.48 37.83 0.00 29.37 0.00 18.91C0.00 8.46 8.48 0.00 18.91 0.00ZM18.91 3.56C10.43 3.56 3.59 10.43 3.59 18.91C3.59 27.40 10.43 34.27 18.91 34.27C27.40 34.27 34.27 27.40 34.27 18.91C34.27 10.43 27.40 3.56 18.91 3.56ZM27.54 16.15C29.06 16.15 30.30 17.39 30.30 18.91C30.30 20.44 29.06 21.70 27.54 21.70C25.99 21.70 24.75 20.44 24.75 18.91C24.75 17.39 25.99 16.15 27.54 16.15ZM18.89 16.15C20.44 16.15 21.68 17.39 21.68 18.91C21.68 20.44 20.44 21.70 18.89 21.70C17.37 21.70 16.12 20.44 16.12 18.91C16.12 17.39 17.37 16.15 18.89 16.15ZM10.27 16.15C11.79 16.15 13.05 17.39 13.05 18.91C13.05 20.44 11.77 21.70 10.27 21.70C8.74 21.70 7.50 20.44 7.50 18.91C7.50 17.39 8.74 16.15 10.27 16.15Z" fill="currentColor"/>
</svg>
