<?xml version="1.0" encoding="UTF-8"?>
<svg xmlns="http://www.w3.org/2000/svg" width="39" height="35" viewBox="0.00 0.00 38.67 34.99">
  <title>exclamationmark.triangle</title>
  <path d="M5.25 0.00L33.42 0.00C36.68 0.00 38.67 2.27 38.67 5.25C38.67 6.12 38.41 7.03 37.95 7.85L23.84 32.34C22.83 34.08 21.12 34.99 19.34 34.99C17.55 34.99 15.82 34.08 14.84 32.34L0.73 7.85C0.23 7.01 0.00 6.12 0.00 5.25C0.00 2.27 1.99 0.00 5.25 0.00ZM5.27 3.30C4.13 3.30 3.38 4.24 3.38 5.25C3.38 5.55 3.45 5.93 3.61 6.23L17.70 30.75C18.05 31.36 18.70 31.66 19.34 31.66C19.95 31.66 20.58 31.36 20.95 30.75L35.04 6.21C35.20 5.91 35.27 5.55 35.27 5.25C35.27 4.24 34.52 3.30 33.37 3.30ZM19.34 12.49C20.32 12.49 20.88 13.03 20.91 14.11L21.21 23.72C21.23 24.75 20.39 25.55 19.31 25.55C18.19 25.55 17.41 24.77 17.44 23.74L17.70 14.11C17.72 13.05 18.28 12.49 19.34 12.49ZM19.34 6.35C20.48 6.35 21.47 7.24 21.47 8.41C21.47 9.59 20.51 10.48 19.34 10.48C18.16 10.48 17.18 9.56 17.18 8.41C17.18 7.27 18.19 6.35 19.34 6.35Z" fill="currentColor"/>
</svg>
