<?xml version="1.0" encoding="UTF-8"?>
<svg xmlns="http://www.w3.org/2000/svg" width="34" height="37" viewBox="0.00 0.00 33.26 36.63">
  <title>flag.fill</title>
  <path d="M1.59 0.00C2.46 0.00 3.16 0.70 3.16 1.57L3.16 11.48C3.59 11.72 5.32 12.35 7.90 12.35C14.79 12.35 19.15 9.00 25.62 9.00C28.57 9.00 29.60 9.30 31.05 9.96C32.39 10.55 33.26 11.60 33.26 13.45L33.26 32.34C33.26 33.40 32.32 34.03 31.12 34.03C30.21 34.03 28.52 33.28 25.38 33.28C18.91 33.28 14.55 36.63 7.66 36.63C4.71 36.63 3.68 36.33 2.23 35.67C0.89 35.09 0.00 34.03 0.00 32.16L0.00 1.57C0.00 0.73 0.73 0.00 1.59 0.00Z" fill="currentColor"/>
</svg>
