<?xml version="1.0" encoding="UTF-8"?>
<svg xmlns="http://www.w3.org/2000/svg" width="54" height="34" viewBox="0.00 0.00 53.41 33.68">
  <title>gamecontroller</title>
  <path d="M0.00 7.29C0.00 2.86 2.88 0.00 7.20 0.00C9.40 0.00 11.55 0.94 13.15 2.88L16.43 6.87C16.87 7.41 17.44 7.69 17.95 7.69L35.44 7.69C35.98 7.69 36.54 7.41 36.98 6.87L40.27 2.88C41.84 0.94 43.99 0.00 46.20 0.00C50.53 0.00 53.41 2.86 53.41 7.29C53.41 9.14 52.99 11.30 52.29 13.66C51.16 17.41 49.20 22.55 47.32 26.48C45.73 29.86 44.88 31.45 40.90 32.34C37.48 33.12 32.70 33.68 26.70 33.68C20.72 33.68 15.94 33.12 12.52 32.34C8.53 31.45 7.69 29.86 6.07 26.48C4.22 22.55 2.25 17.41 1.12 13.66C0.42 11.30 0.00 9.14 0.00 7.29ZM3.21 7.17C3.21 8.32 3.47 9.70 3.98 11.48C5.27 15.87 7.43 21.40 9.26 25.38C10.15 27.33 10.59 28.45 12.84 28.97C16.15 29.74 20.81 30.30 26.70 30.30C32.58 30.30 37.27 29.74 40.55 28.97C42.80 28.45 43.24 27.33 44.16 25.38C46.01 21.40 48.07 15.84 49.41 11.48C49.95 9.70 50.20 8.32 50.20 7.17C50.20 4.73 48.47 3.23 46.24 3.23C44.91 3.23 43.59 3.96 42.56 5.20L39.12 9.37C38.23 10.50 37.48 11.06 35.62 11.06L17.79 11.06C15.94 11.06 15.19 10.50 14.27 9.37L10.83 5.20C9.82 3.96 8.51 3.23 7.15 3.23C4.92 3.23 3.21 4.73 3.21 7.17ZM11.77 20.51C11.77 19.41 12.40 18.75 13.50 18.75L16.45 18.75L16.45 15.94C16.45 14.86 17.06 14.20 18.12 14.20C19.15 14.20 19.76 14.86 19.76 15.94L19.76 18.75L22.52 18.75C23.70 18.75 24.37 19.41 24.37 20.51C24.37 21.56 23.70 22.22 22.52 22.22L19.76 22.22L19.76 25.03C19.76 26.11 19.15 26.77 18.12 26.77C17.06 26.77 16.45 26.11 16.45 25.03L16.45 22.22L13.50 22.22C12.40 22.22 11.77 21.56 11.77 20.51ZM38.16 20.60C39.68 20.60 40.92 21.84 40.92 23.37C40.92 24.89 39.68 26.16 38.16 26.16C36.63 26.16 35.37 24.89 35.37 23.37C35.37 21.84 36.63 20.60 38.16 20.60ZM32.86 15.19C34.41 15.19 35.65 16.43 35.65 17.98C35.65 19.50 34.41 20.74 32.86 20.74C31.34 20.74 30.09 19.50 30.09 17.98C30.09 16.43 31.34 15.19 32.86 15.19Z" fill="currentColor"/>
</svg>
