<?xml version="1.0" encoding="UTF-8"?>
<svg xmlns="http://www.w3.org/2000/svg" width="54" height="34" viewBox="0.00 0.00 53.41 33.68">
  <title>gamecontroller.fill</title>
  <path d="M11.20 20.51C11.20 21.61 11.86 22.29 13.01 22.29L16.08 22.29L16.08 25.20C16.08 26.32 16.71 27.00 17.81 27.00C18.89 27.00 19.52 26.32 19.52 25.20L19.52 22.29L22.36 22.29C23.60 22.29 24.30 21.61 24.30 20.51C24.30 19.36 23.60 18.68 22.36 18.68L19.52 18.68L19.52 15.75C19.52 14.62 18.89 13.95 17.81 13.95C16.71 13.95 16.08 14.62 16.08 15.75L16.08 18.68L13.01 18.68C11.86 18.68 11.20 19.36 11.20 20.51ZM38.60 20.60C37.03 20.60 35.70 21.89 35.70 23.48C35.70 25.08 37.03 26.37 38.60 26.37C40.20 26.37 41.48 25.08 41.48 23.48C41.48 21.89 40.20 20.60 38.60 20.60ZM33.12 14.98C31.55 14.98 30.21 16.29 30.21 17.88C30.21 19.45 31.55 20.77 33.12 20.77C34.71 20.77 36.00 19.45 36.00 17.88C36.00 16.29 34.71 14.98 33.12 14.98ZM7.20 0.00C9.87 0.00 11.55 0.94 13.15 2.88L16.43 6.87C16.87 7.41 17.44 7.69 17.95 7.69L35.44 7.69C35.98 7.69 36.54 7.41 36.98 6.87L40.27 2.88C41.84 0.94 43.52 0.00 46.20 0.00C50.53 0.00 53.41 2.86 53.41 7.29C53.41 9.14 52.99 11.30 52.29 13.66C51.16 17.41 49.20 22.55 47.32 26.48C45.73 29.86 44.88 31.45 40.90 32.34C37.48 33.12 32.70 33.68 26.70 33.68C20.72 33.68 15.94 33.12 12.52 32.34C8.53 31.45 7.69 29.86 6.07 26.48C4.22 22.55 2.25 17.41 1.12 13.66C0.42 11.30 0.00 9.14 0.00 7.29C0.00 2.86 2.88 0.00 7.20 0.00Z" fill="currentColor"/>
</svg>
