<?xml version="1.0" encoding="UTF-8"?>
<svg xmlns="http://www.w3.org/2000/svg" width="42" height="42" viewBox="0.00 0.00 41.44 41.02">
  <title>gear</title>
  <path d="M20.72 2.67C21.14 2.67 21.59 2.70 22.01 2.72L23.04 0.73C23.30 0.23 23.79 0.02 24.30 0.09C24.87 0.19 25.22 0.59 25.29 1.12L25.62 3.33C26.46 3.59 27.23 3.89 28.03 4.22L29.67 2.72C30.05 2.34 30.61 2.30 31.08 2.55C31.57 2.84 31.78 3.33 31.66 3.87L31.17 6.05C31.87 6.56 32.53 7.10 33.14 7.69L35.20 6.84C35.72 6.63 36.23 6.77 36.61 7.20C36.96 7.62 36.98 8.16 36.70 8.60L35.48 10.50C35.98 11.23 36.40 11.95 36.77 12.73L39.00 12.63C39.56 12.61 40.01 12.89 40.20 13.43C40.41 13.95 40.24 14.46 39.80 14.79L38.02 16.15C38.23 16.97 38.37 17.81 38.46 18.68L40.59 19.36C41.13 19.52 41.44 19.95 41.44 20.51C41.44 21.07 41.13 21.49 40.59 21.66L38.46 22.34C38.37 23.20 38.23 24.05 38.02 24.87L39.80 26.23C40.24 26.55 40.36 27.07 40.22 27.59C40.01 28.15 39.54 28.41 39.00 28.38L36.77 28.31C36.40 29.09 35.98 29.81 35.48 30.54L36.70 32.41C36.98 32.86 36.94 33.40 36.63 33.82C36.23 34.27 35.72 34.38 35.20 34.17L33.14 33.33C32.53 33.94 31.85 34.48 31.17 34.97L31.66 37.15C31.78 37.69 31.57 38.18 31.10 38.46C30.61 38.74 30.05 38.67 29.67 38.30L28.01 36.80C27.23 37.15 26.44 37.43 25.59 37.69L25.29 39.89C25.22 40.43 24.87 40.80 24.33 40.92C23.77 41.02 23.30 40.78 23.04 40.29L22.01 38.30C21.59 38.32 21.14 38.34 20.72 38.34C20.30 38.34 19.87 38.32 19.43 38.30L18.40 40.29C18.14 40.78 17.67 40.99 17.13 40.92C16.57 40.83 16.22 40.43 16.15 39.89L15.82 37.69C15.00 37.43 14.20 37.12 13.43 36.80L11.79 38.30C11.39 38.67 10.85 38.72 10.36 38.46C9.87 38.18 9.68 37.69 9.80 37.15L10.27 34.95C9.56 34.45 8.91 33.91 8.30 33.30L6.23 34.17C5.74 34.38 5.20 34.24 4.85 33.82C4.48 33.40 4.45 32.86 4.76 32.41L5.95 30.52C5.48 29.79 5.04 29.06 4.66 28.29L2.46 28.38C1.90 28.41 1.45 28.12 1.27 27.59C1.05 27.07 1.22 26.55 1.64 26.23L3.42 24.87C3.21 24.05 3.07 23.20 2.98 22.34L0.84 21.66C0.30 21.49 0.00 21.07 0.00 20.51C0.00 19.95 0.30 19.52 0.84 19.36L2.98 18.68C3.07 17.81 3.21 16.97 3.42 16.15L1.64 14.79C1.22 14.46 1.08 13.95 1.24 13.43C1.45 12.87 1.90 12.61 2.44 12.63L4.66 12.70C5.04 11.93 5.48 11.20 5.95 10.48L4.76 8.60C4.45 8.16 4.50 7.59 4.83 7.20C5.20 6.75 5.74 6.63 6.23 6.84L8.30 7.71C8.91 7.08 9.59 6.54 10.27 6.05L9.80 3.87C9.68 3.33 9.87 2.84 10.34 2.55C10.85 2.27 11.39 2.34 11.79 2.72L13.45 4.22C14.20 3.87 15.02 3.59 15.84 3.33L16.15 1.12C16.22 0.59 16.59 0.21 17.11 0.09C17.67 0.00 18.14 0.23 18.40 0.73L19.43 2.72C19.87 2.70 20.30 2.67 20.72 2.67ZM20.72 6.16C12.80 6.16 6.37 12.59 6.37 20.51C6.37 28.43 12.80 34.85 20.72 34.85C28.64 34.85 35.06 28.43 35.06 20.51C35.06 12.59 28.64 6.16 20.72 6.16ZM17.27 23.37L19.73 24.91L13.66 35.32L11.09 33.89ZM24.98 19.08L37.08 19.08L37.08 21.94L24.98 21.94ZM19.71 16.01L17.30 17.62L10.87 7.15L13.41 5.67ZM20.72 15.45C23.51 15.45 25.78 17.72 25.78 20.51C25.78 23.30 23.51 25.57 20.72 25.57C17.93 25.57 15.68 23.30 15.68 20.51C15.68 17.72 17.93 15.45 20.72 15.45ZM20.72 18.59C19.66 18.59 18.80 19.45 18.80 20.51C18.80 21.56 19.66 22.43 20.72 22.43C21.77 22.43 22.64 21.56 22.64 20.51C22.64 19.45 21.77 18.59 20.72 18.59Z" fill="currentColor"/>
</svg>
