<?xml version="1.0" encoding="UTF-8"?>
<svg xmlns="http://www.w3.org/2000/svg" width="38" height="38" viewBox="0.00 0.00 37.85 37.83">
  <title>globe</title>
  <path d="M18.91 0.00C29.37 0.00 37.85 8.46 37.85 18.91C37.85 29.37 29.37 37.83 18.91 37.83C8.48 37.83 0.00 29.37 0.00 18.91C0.00 8.46 8.48 0.00 18.91 0.00ZM18.91 2.81C10.03 2.81 2.84 10.03 2.84 18.91C2.84 27.80 10.03 35.02 18.91 35.02C27.80 35.02 35.02 27.80 35.02 18.91C35.02 10.03 27.80 2.81 18.91 2.81ZM18.91 1.20C24.16 1.20 28.31 8.91 28.31 18.87C28.31 28.90 24.19 36.63 18.91 36.63C13.64 36.63 9.54 28.90 9.54 18.87C9.54 8.91 13.66 1.20 18.91 1.20ZM18.91 3.75C15.45 3.75 12.30 10.87 12.30 18.87C12.30 26.95 15.45 34.08 18.91 34.08C22.41 34.08 25.55 26.95 25.55 18.87C25.55 10.87 22.41 3.75 18.91 3.75ZM18.91 0.59C19.66 0.59 20.27 1.20 20.27 1.95L20.27 35.70C20.27 36.45 19.66 37.05 18.91 37.05C18.19 37.05 17.55 36.45 17.55 35.70L17.55 1.95C17.55 1.20 18.19 0.59 18.91 0.59ZM7.64 6.56C10.03 8.51 13.97 9.56 18.91 9.56C23.88 9.56 27.80 8.51 30.21 6.56C30.80 6.09 31.59 6.02 32.13 6.54C32.67 7.05 32.72 7.90 32.16 8.44C29.72 10.71 24.63 12.28 18.91 12.28C13.22 12.28 8.13 10.71 5.70 8.44C5.13 7.90 5.18 7.05 5.72 6.54C6.26 6.02 7.03 6.09 7.64 6.56ZM2.51 17.55L35.79 17.55C36.54 17.55 37.15 18.16 37.15 18.91C37.15 19.66 36.54 20.27 35.79 20.27L2.51 20.27C1.76 20.27 1.15 19.66 1.15 18.91C1.15 18.16 1.76 17.55 2.51 17.55ZM18.91 25.45C24.63 25.45 29.72 27.02 32.16 29.30C32.72 29.84 32.67 30.68 32.13 31.20C31.59 31.71 30.80 31.64 30.21 31.17C27.80 29.23 23.88 28.17 18.91 28.17C13.97 28.17 10.03 29.23 7.64 31.17C7.03 31.64 6.26 31.71 5.72 31.20C5.18 30.68 5.13 29.84 5.70 29.30C8.13 27.02 13.22 25.45 18.91 25.45Z" fill="currentColor"/>
</svg>
