<?xml version="1.0" encoding="UTF-8"?>
<svg xmlns="http://www.w3.org/2000/svg" width="37" height="35" viewBox="0.00 0.00 36.89 34.24">
  <title>heart</title>
  <path d="M0.00 22.95C0.00 15.00 6.47 7.22 16.99 0.56C17.41 0.28 18.05 0.00 18.45 0.00C18.87 0.00 19.48 0.28 19.90 0.56C30.42 7.22 36.89 15.00 36.89 22.95C36.89 29.55 32.34 34.24 26.30 34.24C22.83 34.24 20.16 32.67 18.45 30.28C16.76 32.65 14.06 34.24 10.59 34.24C4.55 34.24 0.00 29.55 0.00 22.95ZM3.37 22.95C3.37 27.70 6.45 30.87 10.57 30.87C14.04 30.87 15.91 28.69 17.06 27.02C17.62 26.20 17.98 25.97 18.45 25.97C18.94 25.97 19.22 26.23 19.83 27.02C21.07 28.64 22.87 30.87 26.34 30.87C30.47 30.87 33.52 27.70 33.52 22.95C33.52 16.15 26.27 8.72 18.87 3.80C18.66 3.66 18.52 3.56 18.45 3.56C18.37 3.56 18.23 3.66 18.05 3.80C10.62 8.72 3.37 16.15 3.37 22.95Z" fill="currentColor"/>
</svg>
