<?xml version="1.0" encoding="UTF-8"?>
<svg xmlns="http://www.w3.org/2000/svg" width="45" height="40" viewBox="0.00 0.00 44.77 39.05">
  <title>house.fill</title>
  <path d="M17.44 3.37L17.44 13.99C17.44 14.88 18.05 15.47 18.94 15.47L25.83 15.47C26.74 15.47 27.30 14.88 27.30 13.99L27.30 3.37ZM6.02 4.24C6.02 1.57 7.64 0.00 10.36 0.00L34.41 0.00C37.12 0.00 38.74 1.57 38.74 4.24L38.74 18.09L23.46 30.89C22.80 31.45 21.94 31.43 21.30 30.89L6.02 18.09ZM1.83 18.82C2.41 18.82 2.91 19.15 3.33 19.50L21.77 34.99C21.96 35.16 22.20 35.23 22.38 35.23C22.57 35.23 22.78 35.16 22.97 34.99L41.44 19.50C41.86 19.15 42.35 18.82 42.94 18.82C44.09 18.82 44.77 19.64 44.77 20.51C44.77 20.98 44.55 21.49 44.11 21.87L24.73 38.13C23.98 38.74 23.18 39.05 22.38 39.05C21.59 39.05 20.77 38.74 20.04 38.13L0.66 21.87C0.21 21.49 0.00 20.98 0.00 20.51C0.00 19.64 0.68 18.82 1.83 18.82ZM34.12 29.39L39.19 25.12L39.19 33.61C39.19 34.50 38.60 35.06 37.71 35.06L35.60 35.06C34.73 35.06 34.12 34.50 34.12 33.61Z" fill="currentColor"/>
</svg>
