<?xml version="1.0" encoding="UTF-8"?>
<svg xmlns="http://www.w3.org/2000/svg" width="45" height="40" viewBox="0.00 0.00 44.77 39.05">
  <title>house</title>
  <path d="M17.02 2.20L27.75 2.20L27.75 13.99C27.75 14.88 27.19 15.47 26.27 15.47L18.49 15.47C17.60 15.47 17.02 14.88 17.02 13.99ZM1.83 18.82C2.41 18.82 2.91 19.15 3.33 19.50L21.77 34.99C21.96 35.16 22.20 35.23 22.38 35.23C22.57 35.23 22.78 35.16 22.97 34.99L41.44 19.50C41.86 19.15 42.35 18.82 42.94 18.82C44.09 18.82 44.77 19.64 44.77 20.51C44.77 20.98 44.55 21.49 44.11 21.87L24.73 38.13C23.98 38.74 23.18 39.05 22.38 39.05C21.59 39.05 20.77 38.74 20.04 38.13L0.66 21.87C0.21 21.49 0.00 20.98 0.00 20.51C0.00 19.64 0.68 18.82 1.83 18.82ZM34.12 29.39L39.19 25.12L39.19 33.61C39.19 34.50 38.60 35.06 37.71 35.06L35.60 35.06C34.73 35.06 34.12 34.50 34.12 33.61ZM9.91 0.00L34.83 0.00C37.57 0.00 39.19 1.57 39.19 4.24L39.19 24.63L35.79 26.88L35.79 5.11C35.79 4.01 35.18 3.37 34.12 3.37L10.64 3.37C9.59 3.37 8.95 4.01 8.95 5.11L8.95 26.88L5.58 24.63L5.58 4.24C5.58 1.57 7.20 0.00 9.91 0.00Z" fill="currentColor"/>
</svg>
