<?xml version="1.0" encoding="UTF-8"?>
<svg xmlns="http://www.w3.org/2000/svg" width="38" height="38" viewBox="0.00 0.00 37.85 37.83">
  <title>info.circle</title>
  <path d="M18.91 0.00C29.37 0.00 37.85 8.46 37.85 18.91C37.85 29.37 29.37 37.83 18.91 37.83C8.48 37.83 0.00 29.37 0.00 18.91C0.00 8.46 8.48 0.00 18.91 0.00ZM18.91 3.56C10.43 3.56 3.59 10.43 3.59 18.91C3.59 27.40 10.43 34.27 18.91 34.27C27.40 34.27 34.27 27.40 34.27 18.91C34.27 10.43 27.40 3.56 18.91 3.56ZM15.75 8.53L23.20 8.53C24.05 8.53 24.73 9.14 24.73 10.01C24.73 10.83 24.05 11.46 23.20 11.46L21.14 11.46L21.14 20.23C21.14 21.37 20.58 22.10 19.52 22.10L16.10 22.10C15.26 22.10 14.60 21.47 14.60 20.67C14.60 19.80 15.26 19.20 16.10 19.20L17.81 19.20L17.81 11.46L15.75 11.46C14.91 11.46 14.23 10.83 14.23 10.01C14.23 9.14 14.91 8.53 15.75 8.53ZM18.73 24.98C20.20 24.98 21.35 26.16 21.35 27.63C21.35 29.11 20.20 30.26 18.73 30.26C17.27 30.26 16.10 29.11 16.10 27.63C16.10 26.16 17.27 24.98 18.73 24.98Z" fill="currentColor"/>
</svg>
