<?xml version="1.0" encoding="UTF-8"?>
<svg xmlns="http://www.w3.org/2000/svg" width="38" height="19" viewBox="0.00 0.00 37.41 18.80">
  <title>line.3.horizontal</title>
  <path d="M1.57 0.00L35.81 0.00C36.70 0.00 37.41 0.70 37.41 1.59C37.41 2.48 36.70 3.19 35.81 3.19L1.57 3.19C0.70 3.19 0.00 2.48 0.00 1.59C0.00 0.70 0.70 0.00 1.57 0.00ZM1.57 7.80L35.81 7.80C36.70 7.80 37.41 8.51 37.41 9.40C37.41 10.29 36.70 10.99 35.81 10.99L1.57 10.99C0.70 10.99 0.00 10.29 0.00 9.40C0.00 8.51 0.70 7.80 1.57 7.80ZM1.57 15.63L35.81 15.63C36.70 15.63 37.41 16.34 37.41 17.20C37.41 18.09 36.70 18.80 35.81 18.80L1.57 18.80C0.70 18.80 0.00 18.09 0.00 17.20C0.00 16.34 0.70 15.63 1.57 15.63Z" fill="currentColor"/>
</svg>
