<?xml version="1.0" encoding="UTF-8"?>
<svg xmlns="http://www.w3.org/2000/svg" width="38" height="28" viewBox="0.00 0.00 37.38 27.14">
  <title>list.bullet</title>
  <path d="M10.69 0.70L35.67 0.70C36.61 0.70 37.38 1.45 37.38 2.39C37.38 3.35 36.61 4.08 35.67 4.08L10.69 4.08C9.75 4.08 9.00 3.35 9.00 2.39C9.00 1.45 9.75 0.70 10.69 0.70ZM2.39 0.00C3.70 0.00 4.78 1.08 4.78 2.39C4.78 3.73 3.70 4.78 2.39 4.78C1.08 4.78 0.00 3.73 0.00 2.39C0.00 1.08 1.08 0.00 2.39 0.00ZM10.69 11.88L35.67 11.88C36.61 11.88 37.38 12.63 37.38 13.57C37.38 14.51 36.61 15.26 35.67 15.26L10.69 15.26C9.75 15.26 9.00 14.51 9.00 13.57C9.00 12.63 9.75 11.88 10.69 11.88ZM2.39 11.18C3.70 11.18 4.78 12.26 4.78 13.57C4.78 14.88 3.70 15.96 2.39 15.96C1.08 15.96 0.00 14.88 0.00 13.57C0.00 12.26 1.08 11.18 2.39 11.18ZM10.69 23.06L35.67 23.06C36.61 23.06 37.38 23.81 37.38 24.75C37.38 25.69 36.61 26.44 35.67 26.44L10.69 26.44C9.75 26.44 9.00 25.69 9.00 24.75C9.00 23.81 9.75 23.06 10.69 23.06ZM2.39 22.36C3.70 22.36 4.78 23.44 4.78 24.75C4.78 26.06 3.70 27.14 2.39 27.14C1.08 27.14 0.00 26.06 0.00 24.75C0.00 23.44 1.08 22.36 2.39 22.36Z" fill="currentColor"/>
</svg>
