<?xml version="1.0" encoding="UTF-8"?>
<svg xmlns="http://www.w3.org/2000/svg" width="37" height="37" viewBox="-0.00 0.00 36.19 36.54">
  <title>magnifyingglass</title>
  <path d="M-0.00 21.63C-0.00 13.41 6.68 6.75 14.91 6.75C18.07 6.75 20.98 7.73 23.39 9.42L32.11 0.68C32.60 0.21 33.21 0.00 33.84 0.00C35.20 0.00 36.19 1.03 36.19 2.39C36.19 3.05 35.93 3.63 35.53 4.08L26.86 12.77C28.71 15.26 29.79 18.30 29.79 21.63C29.79 29.86 23.13 36.54 14.91 36.54C6.68 36.54 -0.00 29.86 -0.00 21.63ZM3.61 21.63C3.61 27.89 8.65 32.93 14.91 32.93C21.14 32.93 26.20 27.89 26.20 21.63C26.20 15.40 21.14 10.34 14.91 10.34C8.65 10.34 3.61 15.40 3.61 21.63Z" fill="currentColor"/>
</svg>
