<?xml version="1.0" encoding="UTF-8"?>
<svg xmlns="http://www.w3.org/2000/svg" width="38" height="38" viewBox="0.00 0.00 37.85 37.83">
  <title>person.circle</title>
  <path d="M18.91 0.00C29.37 0.00 37.85 8.46 37.85 18.91C37.85 29.37 29.37 37.83 18.91 37.83C8.48 37.83 0.00 29.37 0.00 18.91C0.00 8.46 8.48 0.00 18.91 0.00ZM18.91 3.56C10.43 3.56 3.59 10.43 3.59 18.91C3.59 27.40 10.43 34.27 18.91 34.27C27.40 34.27 34.27 27.40 34.27 18.91C34.27 10.43 27.40 3.56 18.91 3.56ZM10.59 9.63L27.21 9.63C28.01 9.63 28.41 10.20 28.41 10.92C28.41 12.91 25.36 18.05 18.89 18.05C12.45 18.05 9.40 12.91 9.40 10.92C9.40 10.20 9.80 9.63 10.59 9.63ZM18.89 19.55C21.52 19.52 23.62 21.77 23.62 24.73C23.62 27.49 21.52 29.79 18.89 29.79C16.29 29.79 14.18 27.49 14.18 24.73C14.18 21.77 16.29 19.57 18.89 19.55Z" fill="currentColor"/>
</svg>
