<?xml version="1.0" encoding="UTF-8"?>
<svg xmlns="http://www.w3.org/2000/svg" width="33" height="35" viewBox="0.00 0.00 32.34 34.31">
  <title>person</title>
  <path d="M4.83 0.00L27.52 0.00C30.80 0.00 32.34 0.96 32.34 3.07C32.34 7.90 26.25 14.95 16.17 14.95C6.12 14.95 0.00 7.90 0.00 3.07C0.00 0.96 1.57 0.00 4.83 0.00ZM3.77 3.16C3.52 3.16 3.37 3.23 3.37 3.49C3.37 6.23 7.87 11.79 16.17 11.79C24.47 11.79 28.97 6.23 28.97 3.49C28.97 3.23 28.83 3.16 28.57 3.16ZM16.17 17.11C20.60 17.11 24.23 21.07 24.23 25.83C24.23 30.59 20.65 34.31 16.17 34.31C11.74 34.31 8.11 30.52 8.11 25.78C8.11 21.05 11.77 17.11 16.17 17.11ZM16.17 20.25C13.69 20.25 11.48 22.71 11.48 25.78C11.48 28.85 13.62 31.15 16.17 31.15C18.75 31.15 20.86 28.90 20.86 25.83C20.86 22.76 18.70 20.25 16.17 20.25Z" fill="currentColor"/>
</svg>
