<?xml version="1.0" encoding="UTF-8"?>
<svg xmlns="http://www.w3.org/2000/svg" width="31" height="31" viewBox="0.00 0.00 30.63 30.66">
  <title>plus</title>
  <path d="M17.20 1.90L17.20 28.76C17.20 29.77 16.36 30.66 15.33 30.66C14.30 30.66 13.43 29.77 13.43 28.76L13.43 1.90C13.43 0.89 14.30 0.00 15.33 0.00C16.36 0.00 17.20 0.89 17.20 1.90ZM1.90 13.43L28.76 13.43C29.77 13.43 30.63 14.30 30.63 15.33C30.63 16.36 29.77 17.23 28.76 17.23L1.90 17.23C0.87 17.23 0.00 16.36 0.00 15.33C0.00 14.30 0.87 13.43 1.90 13.43Z" fill="currentColor"/>
</svg>
