<?xml version="1.0" encoding="UTF-8"?>
<svg xmlns="http://www.w3.org/2000/svg" width="40" height="40" viewBox="-0.00 0.00 39.44 39.37">
  <title>square.and.pencil</title>
  <path d="M7.78 0.00L25.20 0.00C30.19 0.00 32.98 2.77 32.98 7.78L32.98 25.17C32.98 30.19 30.19 32.95 25.20 32.95L7.78 32.95C2.79 32.95 -0.00 30.19 -0.00 25.17L-0.00 7.78C-0.00 2.77 2.79 0.00 7.78 0.00ZM3.40 7.78L3.40 25.17C3.40 27.98 4.97 29.58 7.78 29.58L25.20 29.58C28.01 29.58 29.58 27.98 29.58 25.17L29.58 7.78C29.58 4.97 28.01 3.37 25.20 3.37L7.78 3.37C4.97 3.37 3.40 4.97 3.40 7.78ZM13.43 9.21L17.77 11.09L38.16 31.52C39.87 33.21 39.87 35.93 38.16 37.64L37.64 38.16C35.95 39.82 33.26 39.75 31.55 38.06L11.20 17.70L9.26 13.57C8.04 10.99 10.76 8.09 13.43 9.21ZM12.37 11.74L16.22 13.38L33.37 30.54L30.61 33.23L13.48 16.10L11.74 12.40C11.58 12.05 11.98 11.58 12.37 11.74ZM34.80 31.97L36.21 33.40C36.84 34.08 36.84 35.06 36.21 35.70L35.70 36.21C35.09 36.82 34.10 36.75 33.49 36.12L32.06 34.71Z" fill="currentColor"/>
</svg>
