<?xml version="1.0" encoding="UTF-8"?>
<svg xmlns="http://www.w3.org/2000/svg" width="42" height="40" viewBox="-0.00 0.00 41.74 39.73">
  <title>star</title>
  <path d="M8.13 0.66C9.00 0.00 10.05 0.26 11.32 1.17L20.86 8.18L30.42 1.17C31.66 0.26 32.72 0.00 33.59 0.66C34.43 1.29 34.59 2.37 34.08 3.82L30.30 15.05L39.94 21.96C41.20 22.83 41.74 23.79 41.39 24.82C41.06 25.80 40.08 26.30 38.53 26.27L26.72 26.18L23.13 37.48C22.66 38.95 21.94 39.73 20.86 39.73C19.80 39.73 19.08 38.95 18.59 37.48L15.00 26.18L3.19 26.27C1.64 26.30 0.68 25.80 0.33 24.82C-0.00 23.79 0.54 22.83 1.78 21.96L11.41 15.05L7.64 3.82C7.12 2.37 7.29 1.29 8.13 0.66ZM11.20 4.85C11.18 4.90 11.18 4.92 11.20 5.02L14.79 15.14C15.05 15.91 14.91 16.52 14.20 17.02L5.34 23.06C5.27 23.13 5.25 23.16 5.27 23.20C5.30 23.25 5.32 23.25 5.41 23.25L16.15 23.02C16.97 22.99 17.48 23.32 17.74 24.14L20.77 34.43C20.79 34.52 20.81 34.55 20.86 34.55C20.91 34.55 20.93 34.52 20.95 34.43L23.98 24.14C24.23 23.32 24.77 22.99 25.59 23.02L36.30 23.25C36.40 23.25 36.42 23.25 36.45 23.20C36.47 23.16 36.45 23.13 36.37 23.06L27.52 17.02C26.81 16.52 26.67 15.91 26.95 15.14L30.52 5.02C30.54 4.92 30.54 4.90 30.52 4.85C30.49 4.80 30.45 4.85 30.37 4.90L21.87 11.44C21.23 11.95 20.51 11.95 19.85 11.44L11.37 4.90C11.30 4.85 11.25 4.80 11.20 4.85Z" fill="currentColor"/>
</svg>
