<?xml version="1.0" encoding="UTF-8"?>
<svg xmlns="http://www.w3.org/2000/svg" width="42" height="40" viewBox="-0.00 0.00 41.74 39.73">
  <title>star.fill</title>
  <path d="M8.13 0.66C9.00 0.00 10.05 0.26 11.32 1.17L20.86 8.18L30.42 1.17C31.66 0.26 32.72 0.00 33.59 0.66C34.43 1.29 34.59 2.37 34.08 3.82L30.30 15.05L39.94 21.96C41.20 22.83 41.74 23.79 41.39 24.82C41.06 25.80 40.08 26.27 38.53 26.27L26.72 26.27L23.13 37.48C22.66 38.95 21.94 39.73 20.86 39.73C19.80 39.73 19.08 38.95 18.59 37.48L15.00 26.27L3.19 26.27C1.64 26.27 0.68 25.80 0.33 24.82C-0.00 23.79 0.54 22.83 1.78 21.96L11.41 15.05L7.64 3.82C7.12 2.37 7.29 1.29 8.13 0.66Z" fill="currentColor"/>
</svg>
