<?xml version="1.0" encoding="UTF-8"?>
<svg xmlns="http://www.w3.org/2000/svg" width="36" height="42" viewBox="0.00 0.00 35.81 41.13">
  <title>trash</title>
  <path d="M12.49 6.05C13.29 6.05 13.80 6.54 13.78 7.27L13.24 26.48C13.22 27.23 12.70 27.70 11.95 27.70C11.18 27.70 10.64 27.21 10.66 26.48L11.20 7.27C11.23 6.52 11.74 6.05 12.49 6.05ZM17.91 6.05C18.70 6.05 19.24 6.54 19.24 7.27L19.24 26.48C19.24 27.21 18.70 27.70 17.91 27.70C17.11 27.70 16.57 27.21 16.57 26.48L16.57 7.27C16.57 6.54 17.11 6.05 17.91 6.05ZM23.34 6.05C24.07 6.05 24.61 6.52 24.63 7.27L25.15 26.48C25.17 27.21 24.66 27.70 23.86 27.70C23.11 27.70 22.59 27.21 22.57 26.48L22.05 7.27C22.03 6.54 22.55 6.05 23.34 6.05ZM9.73 32.48L13.05 32.48L13.05 36.42C13.05 37.38 13.73 38.02 14.72 38.02L21.07 38.02C22.03 38.02 22.71 37.38 22.71 36.42L22.71 32.48L26.06 32.48L26.06 36.66C26.06 39.42 24.26 41.13 21.30 41.13L14.46 41.13C11.53 41.13 9.73 39.42 9.73 36.66ZM1.55 30.82L34.27 30.82C35.13 30.82 35.81 31.52 35.81 32.39C35.81 33.26 35.11 33.96 34.27 33.96L1.55 33.96C0.73 33.96 0.00 33.26 0.00 32.39C0.00 31.52 0.73 30.82 1.55 30.82ZM9.45 0.00L26.39 0.00C29.18 0.00 30.98 1.73 31.12 4.55L32.34 31.17L28.99 31.17L27.82 4.90C27.77 3.84 27.07 3.14 26.04 3.14L9.75 3.14C8.77 3.14 8.04 3.87 7.99 4.90L6.75 31.17L3.47 31.17L4.71 4.52C4.85 1.71 6.61 0.00 9.45 0.00Z" fill="currentColor"/>
</svg>
