<?xml version="1.0" encoding="UTF-8"?>
<svg xmlns="http://www.w3.org/2000/svg" width="30" height="30" viewBox="-0.00 0.00 29.84 29.81">
  <title>xmark</title>
  <path d="M26.41 29.09L0.73 3.40C0.02 2.70 -0.00 1.45 0.73 0.73C1.48 0.00 2.70 0.00 3.42 0.73L29.09 26.39C29.81 27.12 29.84 28.36 29.09 29.09C28.34 29.79 27.14 29.81 26.41 29.09ZM29.09 3.40L3.42 29.09C2.70 29.79 1.45 29.81 0.73 29.09C0.02 28.34 0.02 27.12 0.73 26.39L26.41 0.73C27.12 0.00 28.36 0.00 29.09 0.73C29.81 1.48 29.81 2.70 29.09 3.40Z" fill="currentColor"/>
</svg>
